<svg id="visual" viewBox="0 0 540 960" width="540" height="960" xmlns="http://www.w3.org/2000/svg" xmlns:xlink="http://www.w3.org/1999/xlink" version="1.1"><path d="M0 720L9 721.2C18 722.3 36 724.7 54 728.7C72 732.7 90 738.3 108 740.7C126 743 144 742 162 737.8C180 733.7 198 726.3 216 723.5C234 720.7 252 722.3 270 728.3C288 734.3 306 744.7 324 743.7C342 742.7 360 730.3 378 730C396 729.7 414 741.3 432 746.8C450 752.3 468 751.7 486 752C504 752.3 522 753.7 531 754.3L540 755L540 961L531 961C522 961 504 961 486 961C468 961 450 961 432 961C414 961 396 961 378 961C360 961 342 961 324 961C306 961 288 961 270 961C252 961 234 961 216 961C198 961 180 961 162 961C144 961 126 961 108 961C90 961 72 961 54 961C36 961 18 961 9 961L0 961Z" fill="#ff6b6b"></path><path d="M0 809L9 806C18 803 36 797 54 791.8C72 786.7 90 782.3 108 785C126 787.7 144 797.3 162 796C180 794.7 198 782.3 216 778.2C234 774 252 778 270 780.3C288 782.7 306 783.3 324 780.7C342 778 360 772 378 776.3C396 780.7 414 795.3 432 801C450 806.7 468 803.3 486 796.3C504 789.3 522 778.7 531 773.3L540 768L540 961L531 961C522 961 504 961 486 961C468 961 450 961 432 961C414 961 396 961 378 961C360 961 342 961 324 961C306 961 288 961 270 961C252 961 234 961 216 961C198 961 180 961 162 961C144 961 126 961 108 961C90 961 72 961 54 961C36 961 18 961 9 961L0 961Z" fill="#b44349"></path><path d="M0 861L9 861C18 861 36 861 54 861C72 861 90 861 108 854.5C126 848 144 835 162 829.2C180 823.3 198 824.7 216 824.8C234 825 252 824 270 825.5C288 827 306 831 324 836C342 841 360 847 378 848.8C396 850.7 414 848.3 432 846.7C450 845 468 844 486 843.2C504 842.3 522 841.7 531 841.3L540 841L540 961L531 961C522 961 504 961 486 961C468 961 450 961 432 961C414 961 396 961 378 961C360 961 342 961 324 961C306 961 288 961 270 961C252 961 234 961 216 961C198 961 180 961 162 961C144 961 126 961 108 961C90 961 72 961 54 961C36 961 18 961 9 961L0 961Z" fill="#6e2027"></path><path d="M0 925L9 924.2C18 923.3 36 921.7 54 922.3C72 923 90 926 108 921C126 916 144 903 162 900C180 897 198 904 216 909.5C234 915 252 919 270 914.5C288 910 306 897 324 896.2C342 895.3 360 906.7 378 911.2C396 915.7 414 913.3 432 907.7C450 902 468 893 486 891.7C504 890.3 522 896.7 531 899.8L540 903L540 961L531 961C522 961 504 961 486 961C468 961 450 961 432 961C414 961 396 961 378 961C360 961 342 961 324 961C306 961 288 961 270 961C252 961 234 961 216 961C198 961 180 961 162 961C144 961 126 961 108 961C90 961 72 961 54 961C36 961 18 961 9 961L0 961Z" fill="#300000"></path></svg>