<svg id="visual" viewBox="0 0 540 960" width="540" height="960" xmlns="http://www.w3.org/2000/svg" xmlns:xlink="http://www.w3.org/1999/xlink" version="1.1"><path d="M0 748L77 777L154 811L231 798L309 762L386 814L463 759L540 768L540 961L463 961L386 961L309 961L231 961L154 961L77 961L0 961Z" fill="#ff6b6b"></path><path d="M0 848L77 778L154 829L231 804L309 835L386 809L463 801L540 852L540 961L463 961L386 961L309 961L231 961L154 961L77 961L0 961Z" fill="#b44349"></path><path d="M0 830L77 829L154 863L231 864L309 852L386 851L463 847L540 834L540 961L463 961L386 961L309 961L231 961L154 961L77 961L0 961Z" fill="#6e2027"></path><path d="M0 915L77 876L154 913L231 914L309 889L386 888L463 927L540 873L540 961L463 961L386 961L309 961L231 961L154 961L77 961L0 961Z" fill="#300000"></path></svg>